# xmcd CD database file
#
# Track frame offsets:
#	150
#	12678
#	44878
#	52177
#	66718
#	79407
#	93153
#	109280
#	122951
#	145905
#	158866
#	173678
#	187796
#	202030
#	211513
#	245728
#	261170
#	278712
#
# Disc length: 3987 seconds
#
# Revision: 1
# Processed by: cddbd v1.5.2PL0 Copyright (c) Steve Scherf et al.
# Submitted via: CDex 1.82
#
DISCID=190f9112
DTITLE=Various Artist - The very Best of Latin Jazz Disc 1
DYEAR=2015
DGENRE=Jazz
TTITLE0=Quincy Jones - Soul Bossa Nova
TTITLE1=Herbie Hancock - Watermelon Man
TTITLE2=Joao Gilberto - Um Abraco no Bonfa
TTITLE3=Luiz Bonfa - Samba de duas Notas
TTITLE4=Perez Prado - Mambo no.5
TTITLE5=Cal Tjader - Vai Querer
TTITLE6=Charlie Byrd - Azul Tiple
TTITLE7=Sergio Mendes - Love for Sale
TTITLE8=Kenny Dorham - Afrodesia
TTITLE9=Celia Cruz - Poco a Poco
TTITLE10=Candide - Exactly like You
TTITLE11=Dizzy Gallespie and his Orchestra - Manteca
TTITLE12=Art Mooney - Chi Chi cas Tenango
TTITLE13=Mark Murphy - Fly away Mr Sadness
TTITLE14=Eddie Lockjaw Davis - Afro Jaws
TTITLE15=Mongo Santamaria - Pachanga Twist
TTITLE16=Antonio Carles Jobim and Luiz Bonfa - Medley: Manha de Carnaval - Scene du Lever du Soleil
TTITLE17=Herbie Mann - One note Samba
EXTD=YEAR: 2015
EXTT0=
EXTT1=
EXTT2=
EXTT3=
EXTT4=
EXTT5=
EXTT6=
EXTT7=
EXTT8=
EXTT9=
EXTT10=
EXTT11=
EXTT12=
EXTT13=
EXTT14=
EXTT15=
EXTT16=
EXTT17=
PLAYORDER=
